<svg width="256" height="256" viewBox="0 0 256 256" fill="none" xmlns="http://www.w3.org/2000/svg">
<g clip-path="url(#clip0_2784_35093)">
<path d="M0 94.5231C0 61.4369 0 44.8938 6.439 32.2566C12.1029 21.1405 21.1405 12.1029 32.2566 6.439C44.8938 0 61.4369 0 94.5231 0H161.477C194.563 0 211.106 0 223.743 6.439C234.859 12.1029 243.897 21.1405 249.561 32.2566C256 44.8938 256 61.4369 256 94.5231V161.477C256 194.563 256 211.106 249.561 223.743C243.897 234.859 234.859 243.897 223.743 249.561C211.106 256 194.563 256 161.477 256H94.5231C61.4369 256 44.8938 256 32.2566 249.561C21.1405 243.897 12.1029 234.859 6.439 223.743C0 211.106 0 194.563 0 161.477V94.5231Z" fill="url(#paint0_linear_2784_35093)"/>
<mask id="mask0_2784_35093" style="mask-type:alpha" maskUnits="userSpaceOnUse" x="0" y="0" width="256" height="256">
<g opacity="0.9">
<path d="M197.844 81.75L139.484 55.1484C133.156 52.2578 122.805 52.2578 116.477 55.1484L58.1562 81.75C51.2812 84.875 51.2812 89.9922 58.1562 93.1172L115.969 119.484C122.57 122.492 133.43 122.492 140.031 119.484L197.844 93.1172C204.719 89.9922 204.719 84.875 197.844 81.75ZM115.969 174.562L76.9844 156.789C75.3438 156.047 73.4297 156.047 71.7891 156.789L58.1562 163C51.2812 166.125 51.2812 171.242 58.1562 174.367L115.969 200.734C122.57 203.742 133.43 203.742 140.031 200.734L197.844 174.367C204.719 171.242 204.719 166.125 197.844 163L184.211 156.789C182.57 156.047 180.656 156.047 179.016 156.789L140.031 174.562C133.43 177.57 122.57 177.57 115.969 174.562Z" fill="url(#paint1_linear_2784_35093)"/>
<path d="M197.844 122.375L185.461 116.75C183.82 116.008 181.945 116.008 180.305 116.75L138.117 135.852C132.141 137.883 123.82 137.883 117.844 135.852L75.6562 116.75C74.0156 116.008 72.1406 116.008 70.5 116.75L58.1172 122.375C51.2422 125.5 51.2422 130.617 58.1172 133.742L115.93 160.109C122.531 163.117 133.391 163.117 139.992 160.109L197.805 133.742C204.719 130.617 204.719 125.5 197.844 122.375Z" fill="url(#paint2_linear_2784_35093)"/>
</g>
</mask>
<g mask="url(#mask0_2784_35093)">
<path d="M0 94.5231C0 61.4369 0 44.8938 6.439 32.2566C12.1029 21.1405 21.1405 12.1029 32.2566 6.439C44.8938 0 61.4369 0 94.5231 0H161.477C194.563 0 211.106 0 223.743 6.439C234.859 12.1029 243.897 21.1405 249.561 32.2566C256 44.8938 256 61.4369 256 94.5231V161.477C256 194.563 256 211.106 249.561 223.743C243.897 234.859 234.859 243.897 223.743 249.561C211.106 256 194.563 256 161.477 256H94.5231C61.4369 256 44.8938 256 32.2566 249.561C21.1405 243.897 12.1029 234.859 6.439 223.743C0 211.106 0 194.563 0 161.477V94.5231Z" fill="#72BBCC"/>
</g>
</g>
<defs>
<linearGradient id="paint0_linear_2784_35093" x1="128" y1="0" x2="128" y2="256" gradientUnits="userSpaceOnUse">
<stop stop-color="#313131"/>
<stop offset="1" stop-color="#141414"/>
</linearGradient>
<linearGradient id="paint1_linear_2784_35093" x1="127.98" y1="52.9805" x2="127.98" y2="202.99" gradientUnits="userSpaceOnUse">
<stop stop-color="#EEEEEE"/>
<stop offset="1" stop-color="#EEEEEE" stop-opacity="0.4"/>
</linearGradient>
<linearGradient id="paint2_linear_2784_35093" x1="127.98" y1="52.9805" x2="127.98" y2="202.99" gradientUnits="userSpaceOnUse">
<stop stop-color="#EEEEEE"/>
<stop offset="1" stop-color="#EEEEEE" stop-opacity="0.4"/>
</linearGradient>
<clipPath id="clip0_2784_35093">
<rect width="256" height="256" fill="white"/>
</clipPath>
</defs>
</svg>
